<svg width="77" height="88" viewBox="0 0 77 88" fill="none" xmlns="http://www.w3.org/2000/svg">
<path d="M54.9162 39.4561C55.0335 39.4561 55.1504 39.4574 55.2671 39.4599C54.9846 30.4955 47.6176 23.315 38.5711 23.315C29.5246 23.315 22.1577 30.4955 21.8752 39.4599C21.9918 39.4574 22.1088 39.4561 22.226 39.4561C30.9556 39.4561 38.0323 46.5221 38.0323 55.2385C38.0323 55.7186 38.0108 56.1936 37.9688 56.6627C38.1687 56.6697 38.3695 56.6733 38.5711 56.6733C38.7728 56.6733 38.9735 56.6697 39.1734 56.6627C39.1314 56.1936 39.11 55.7186 39.11 55.2385C39.11 46.5221 46.1867 39.4561 54.9162 39.4561Z" fill="white" fill-opacity="0.44"/>
<path d="M35.0166 0.225516C33.2362 0.476576 29.9463 1.616 28.3208 2.52369C23.444 5.30467 20.0961 10.3452 19.5929 15.6754L19.4768 16.9693L18.5866 17.0852C14.8323 17.5487 13.0519 18.0508 10.4974 19.4027C4.90464 22.3575 1.34385 27.6877 0.860043 33.829C0.492352 38.3674 2.40822 43.5625 5.65938 46.9228L6.80116 48.0815L6.298 49.5879C5.60132 51.7509 5.4078 52.9096 5.4078 54.9181C5.4078 64.5357 12.452 71.6426 21.9732 71.6426C23.5795 71.6426 25.8243 72.1061 27.6241 72.8014C30.0044 73.7284 31.688 74.8292 33.662 76.8377C35.2295 78.402 35.6552 78.9813 36.4293 80.5263C37.3969 82.4769 37.9194 84.4081 37.9194 86.069V87.0925H38.5968C39.2547 87.0925 39.2741 87.0732 39.2741 86.32C39.2741 82.9597 41.2867 78.7882 44.1895 76.1617C47.2859 73.3228 51.1176 71.8357 56.033 71.5654C59.6132 71.3529 62.6902 70.2521 65.3414 68.2437C70.8181 64.0722 73.1017 56.4631 70.8762 49.8003L70.3923 48.3133L71.5922 47.0773C74.8821 43.7363 76.5076 39.642 76.4883 34.8526C76.4883 31.8592 76.1012 30.1597 74.8046 27.5139C72.0179 21.7395 66.4639 17.9543 59.7293 17.2011C58.7036 17.0852 57.736 16.9886 57.6006 16.9886C57.407 16.9886 57.2909 16.6217 57.1942 15.7333C56.9426 13.2227 55.7815 10.0748 54.3107 7.91183C53.4399 6.63722 51.3305 4.51286 50.0145 3.56656C45.9506 0.689014 40.4352 -0.546979 35.0166 0.225516ZM43.3767 1.69325C48.389 3.02581 52.4142 6.27028 54.5623 10.7121C55.3751 12.373 56.1105 15.0381 56.1105 16.332V17.1238L54.9687 17.259C51.3885 17.6646 46.5118 19.9821 44.2476 22.3575L43.7057 22.9175L42.4091 22.6279C40.7255 22.2609 37.0679 22.2223 35.1714 22.5699L33.6813 22.8403L32.6556 21.9133C31.2042 20.6194 30.1979 19.9627 28.1853 19.0164C26.0565 18.0122 24.0052 17.4135 22.1087 17.2397L20.696 17.1238V16.2355C20.696 15.0767 21.3153 12.5468 21.9539 11.137C24.16 6.17372 28.9594 2.52369 34.6876 1.42288C36.7196 1.03664 41.4415 1.19113 43.3767 1.69325ZM24.1794 18.7268C26.2307 19.2289 29.2884 20.6966 31.0107 22.0099C31.7267 22.5699 32.3073 23.0913 32.3073 23.1686C32.3073 23.2458 31.8042 23.5162 31.2042 23.7673C28.5336 24.8488 25.2631 27.5911 23.5408 30.179C22.2248 32.1682 21.2766 34.8139 20.9669 37.3052C20.8508 38.3481 20.8121 38.4254 20.3283 38.4254C19.3801 38.4254 16.6127 39.1979 15.2 39.8545C12.3552 41.1677 9.91686 43.1762 8.31063 45.5903C7.84618 46.2662 7.43978 46.8649 7.40107 46.9035C7.28496 47.058 5.94966 45.6675 5.11752 44.5088C3.97574 42.9251 2.96943 40.8587 2.46627 39.0627C1.90506 37.0542 1.86636 33.1917 2.38887 31.1832C4.16927 24.4239 10.033 19.3641 17.3094 18.3405C19.0124 18.0894 22.2829 18.2826 24.1794 18.7268ZM62.1096 18.7268C64.161 19.2289 67.1993 20.6966 68.9797 22.0678C71.6503 24.1149 74.1467 27.8229 74.9788 30.9901C76.3141 36.1079 74.7853 41.9595 71.0697 45.9765C70.4891 46.5945 69.9473 47.1159 69.8699 47.1159C69.8118 47.1159 69.4828 46.6524 69.1345 46.0731C66.8896 42.3651 62.1677 39.2751 57.7167 38.5606C56.3427 38.3481 56.304 38.3288 56.304 37.7881C56.304 36.7838 55.7041 34.2925 55.1042 32.8827C53.4979 29.0202 50.2274 25.6985 46.2409 23.8832L44.8475 23.2458L45.6796 22.5699C48.6018 20.2138 51.7175 18.8426 55.2396 18.3405C56.9426 18.0894 60.2131 18.2826 62.1096 18.7268ZM41.4609 23.6514C45.1571 24.2887 48.2148 25.8723 50.7886 28.4795C53.1496 30.8549 54.7171 34.0028 55.0461 37.0156L55.1816 38.1936L53.8656 38.3095C48.8728 38.7537 44.4411 41.0905 41.7125 44.6826C40.3191 46.5366 39.6998 47.6374 39.0612 49.472L38.5193 51.017L38.3065 50.1866C37.6679 47.8305 35.752 44.7598 33.7587 42.8865C30.8946 40.2214 27.5467 38.7923 23.1537 38.3288L22.0313 38.1936L22.1668 37.1121C23.2311 28.3636 32.288 22.0485 41.4609 23.6514ZM25.9211 39.8738C26.6178 40.0476 28.0498 40.6077 29.1142 41.1291C32.1912 42.6355 34.5134 44.895 36.081 47.927C36.9905 49.6845 37.7259 52.0599 37.7259 53.2766V53.9911L35.7133 54.3001C33.4684 54.6671 30.7785 55.5941 29.1142 56.5983C24.6051 59.302 21.5669 63.8018 20.8702 68.8616L20.638 70.5032L19.7478 70.3873C17.9287 70.1363 16.4772 69.6921 14.7162 68.823C13.2067 68.0698 12.5875 67.6257 11.2135 66.2545C9.23953 64.3039 8.19451 62.6431 7.32367 60.0552C6.78181 58.4716 6.68504 57.8922 6.62699 55.7099C6.45282 51.0557 7.6333 47.7919 10.6135 44.5667C13.1293 41.8437 16.4579 40.0669 19.9606 39.5841C21.5088 39.3717 24.2955 39.5069 25.9211 39.8738ZM58.8778 39.9704C63.1934 41.0712 66.9477 44.1225 68.9797 48.1781C70.1795 50.5922 70.5085 52.0792 70.5085 55.034C70.4891 58.0467 70.1601 59.5145 68.8635 62.1216C66.58 66.718 62.2838 69.75 57.1555 70.368L56.1685 70.4839L56.033 69.3831C55.7428 66.7759 54.6203 63.7439 53.2076 61.6968C50.4596 57.7184 45.9506 54.9954 40.8416 54.2615L39.2547 54.0298L39.3902 52.9289C39.7966 49.5686 41.7318 45.9186 44.3443 43.5431C46.5892 41.5153 49.6855 40.0476 52.7238 39.5841C54.3301 39.3524 57.1361 39.5069 58.8778 39.9704Z" fill="white"/>
</svg>
